<?xml version="1.0" standalone="no"?>
<svg xmlns:xlink="http://www.w3.org/1999/xlink" id="wave" style="transform:rotate(180deg); transition: 0.3s" viewBox="0 0 1440 490" version="1.1" xmlns="http://www.w3.org/2000/svg"><defs><linearGradient id="sw-gradient-0" x1="0" x2="0" y1="1" y2="0"><stop stop-color="rgba(243, 106, 62, 1)" offset="0%"/><stop stop-color="rgba(255, 179, 11, 1)" offset="100%"/></linearGradient></defs><path style="transform:translate(0, 0px); opacity:1" fill="url(#sw-gradient-0)" d="M0,245L26.7,253.2C53.3,261,107,278,160,236.8C213.3,196,267,98,320,65.3C373.3,33,427,65,480,114.3C533.3,163,587,229,640,212.3C693.3,196,747,98,800,122.5C853.3,147,907,294,960,302.2C1013.3,310,1067,180,1120,179.7C1173.3,180,1227,310,1280,359.3C1333.3,408,1387,376,1440,302.2C1493.3,229,1547,114,1600,122.5C1653.3,131,1707,261,1760,269.5C1813.3,278,1867,163,1920,147C1973.3,131,2027,212,2080,204.2C2133.3,196,2187,98,2240,65.3C2293.3,33,2347,65,2400,122.5C2453.3,180,2507,261,2560,302.2C2613.3,343,2667,343,2720,343C2773.3,343,2827,343,2880,326.7C2933.3,310,2987,278,3040,277.7C3093.3,278,3147,310,3200,302.2C3253.3,294,3307,245,3360,187.8C3413.3,131,3467,65,3520,65.3C3573.3,65,3627,131,3680,204.2C3733.3,278,3787,359,3813,400.2L3840,441L3840,490L3813.3,490C3786.7,490,3733,490,3680,490C3626.7,490,3573,490,3520,490C3466.7,490,3413,490,3360,490C3306.7,490,3253,490,3200,490C3146.7,490,3093,490,3040,490C2986.7,490,2933,490,2880,490C2826.7,490,2773,490,2720,490C2666.7,490,2613,490,2560,490C2506.7,490,2453,490,2400,490C2346.7,490,2293,490,2240,490C2186.7,490,2133,490,2080,490C2026.7,490,1973,490,1920,490C1866.7,490,1813,490,1760,490C1706.7,490,1653,490,1600,490C1546.7,490,1493,490,1440,490C1386.7,490,1333,490,1280,490C1226.7,490,1173,490,1120,490C1066.7,490,1013,490,960,490C906.7,490,853,490,800,490C746.7,490,693,490,640,490C586.7,490,533,490,480,490C426.7,490,373,490,320,490C266.7,490,213,490,160,490C106.7,490,53,490,27,490L0,490Z"/></svg>